# xmcd CD database file
#
# Track frame offsets:
#	150
#	14363
#	39616
#	59312
#	68827
#	83227
#	98992
#	111188
#	120760
#	129254
#	150246
#	155985
#	156689
#	175050
#	184353
#	209152
#	211627
#	222746
#	225173
#	233011
#	250468
#	260180
#
# Disc length: 3787 seconds
#
# Revision: 0
# Processed by: cddbd v1.5.2PL0 Copyright (c) Steve Scherf et al.
# Submitted via: CDex 1.70beta2
#
DISCID=3b0ec916
DTITLE=Axel Dorner - Sind
DYEAR=2007
DGENRE=Jazz
TTITLE0=1≦n≦22
TTITLE1=1≦n≦22
TTITLE2=1≦n≦22
TTITLE3=1≦n≦22
TTITLE4=1≦n≦22
TTITLE5=1≦n≦22
TTITLE6=1≦n≦22
TTITLE7=1≦n≦22
TTITLE8=1≦n≦22
TTITLE9=1≦n≦22
TTITLE10=1≦n≦22
TTITLE11=1≦n≦22
TTITLE12=1≦n≦22
TTITLE13=1≦n≦22
TTITLE14=1≦n≦22
TTITLE15=1≦n≦22
TTITLE16=1≦n≦22
TTITLE17=1≦n≦22
TTITLE18=1≦n≦22
TTITLE19=1≦n≦22
TTITLE20=1≦n≦22
TTITLE21=1≦n≦22
EXTD=YEAR: 2007
EXTT0=
EXTT1=
EXTT2=
EXTT3=
EXTT4=
EXTT5=
EXTT6=
EXTT7=
EXTT8=
EXTT9=
EXTT10=
EXTT11=
EXTT12=
EXTT13=
EXTT14=
EXTT15=
EXTT16=
EXTT17=
EXTT18=
EXTT19=
EXTT20=
EXTT21=
PLAYORDER=
